<svg width="25" height="25" viewBox="0 0 25 25" fill="none" xmlns="http://www.w3.org/2000/svg">
<path d="M22 12.8789C22 12.6137 22.1054 12.3593 22.2929 12.1718C22.4804 11.9843 22.7348 11.8789 23 11.8789C23.2652 11.8789 23.5196 11.9843 23.7071 12.1718C23.8946 12.3593 24 12.6137 24 12.8789V23.8789C24 24.1441 23.8946 24.3985 23.7071 24.586C23.5196 24.7736 23.2652 24.8789 23 24.8789H1C0.734784 24.8789 0.48043 24.7736 0.292893 24.586C0.105357 24.3985 0 24.1441 0 23.8789V1.87891C0 1.61369 0.105357 1.35934 0.292893 1.1718C0.48043 0.984263 0.734784 0.878906 1 0.878906H12C12.2652 0.878906 12.5196 0.984263 12.7071 1.1718C12.8946 1.35934 13 1.61369 13 1.87891C13 2.14412 12.8946 2.39848 12.7071 2.58601C12.5196 2.77355 12.2652 2.87891 12 2.87891H2V22.8789H22V12.8789Z" fill="white"/>
<path d="M10.686 14.1984L12.336 13.9624L22.472 3.82843C22.5675 3.73618 22.6437 3.62584 22.6961 3.50383C22.7485 3.38183 22.7761 3.25061 22.7772 3.11783C22.7784 2.98505 22.7531 2.85337 22.7028 2.73048C22.6525 2.60758 22.5783 2.49593 22.4844 2.40203C22.3905 2.30814 22.2788 2.23389 22.1559 2.18361C22.033 2.13333 21.9013 2.10803 21.7686 2.10918C21.6358 2.11033 21.5046 2.13792 21.3826 2.19033C21.2606 2.24274 21.1502 2.31892 21.058 2.41443L10.92 12.5484L10.684 14.1984H10.686ZM23.886 0.99843C24.1647 1.27703 24.3859 1.60783 24.5368 1.97194C24.6877 2.33604 24.7653 2.7263 24.7653 3.12043C24.7653 3.51456 24.6877 3.90482 24.5368 4.26892C24.3859 4.63303 24.1647 4.96383 23.886 5.24243L13.516 15.6124C13.363 15.7659 13.1644 15.8656 12.95 15.8964L9.64997 16.3684C9.49618 16.3905 9.33935 16.3765 9.19194 16.3274C9.04452 16.2783 8.91057 16.1956 8.80071 16.0857C8.69084 15.9758 8.60809 15.8419 8.55901 15.6945C8.50993 15.547 8.49588 15.3902 8.51797 15.2364L8.98997 11.9364C9.02027 11.7222 9.11922 11.5236 9.27197 11.3704L19.644 1.00043C20.2066 0.438017 20.9695 0.12207 21.765 0.12207C22.5605 0.12207 23.3234 0.438017 23.886 1.00043V0.99843Z" fill="white"/>
</svg>
