<svg width="222" height="175" viewBox="0 0 222 175" fill="none" xmlns="http://www.w3.org/2000/svg">
<path d="M212.273 18.7086H87.5377C82.8527 18.7086 78.4426 16.4925 75.6448 12.7327L69.615 4.62907C67.6222 1.94912 64.4784 0.371094 61.1383 0.371094H9.30876C4.36362 0.373548 0.353516 4.38365 0.353516 9.3288V48.3623C0.353516 43.4171 4.36362 44.3154 9.30876 44.3154H212.276C217.221 44.3154 221.231 43.4171 221.231 48.3623V27.6614C221.228 22.7187 217.218 18.7086 212.273 18.7086Z" fill="#11885A"/>
<path d="M212.273 174.344H9.30892C4.36378 174.344 0.353672 170.333 0.353672 165.388L0.353516 48.3623C0.353516 43.4171 4.36378 39.4062 9.30892 39.4062H212.276C217.221 39.4062 221.231 43.4171 221.231 48.3623L221.231 165.388C221.229 170.333 217.218 174.344 212.273 174.344Z" fill="#20C786"/>
</svg>
