<svg width="26" height="26" viewBox="0 0 26 26" fill="none" xmlns="http://www.w3.org/2000/svg">
<g clip-path="url(#clip0_771_68)">
<path d="M25.1958 13.1609C25.1958 12.1167 25.1111 11.3547 24.9277 10.5645H13.0039V15.2775H20.0029C19.8619 16.4487 19.0999 18.2126 17.4065 19.3979L17.3828 19.5557L21.1529 22.4763L21.4141 22.5024C23.8129 20.2869 25.1958 17.0273 25.1958 13.1609Z" fill="#4285F4"/>
<path d="M13.0015 25.5768C16.4305 25.5768 19.3091 24.4479 21.4117 22.5006L17.4041 19.3961C16.3317 20.144 14.8924 20.6661 13.0015 20.6661C9.64313 20.6661 6.79273 18.4508 5.77664 15.3887L5.62771 15.4013L1.70752 18.4352L1.65625 18.5777C3.74466 22.7263 8.03441 25.5768 13.0015 25.5768Z" fill="#34A853"/>
<path d="M5.77775 15.3916C5.50965 14.6014 5.35449 13.7547 5.35449 12.8799C5.35449 12.0049 5.50965 11.1583 5.76365 10.3681L5.75654 10.1998L1.78723 7.11719L1.65736 7.17896C0.796625 8.90052 0.302734 10.8338 0.302734 12.8799C0.302734 14.926 0.796625 16.8591 1.65736 18.5807L5.77775 15.3916Z" fill="#FBBC05"/>
<path d="M13.0015 5.08833C15.3863 5.08833 16.9949 6.11843 17.9121 6.97926L21.4963 3.47971C19.2951 1.43362 16.4305 0.177734 13.0015 0.177734C8.03441 0.177734 3.74466 3.02814 1.65625 7.17674L5.76254 10.3659C6.79273 7.30379 9.64313 5.08833 13.0015 5.08833Z" fill="#EB4335"/>
</g>
<defs>
<clipPath id="clip0_771_68">
<rect width="24.9062" height="25.4874" fill="white" transform="translate(0.300781 0.177734)"/>
</clipPath>
</defs>
</svg>
