<svg width="17" height="17" viewBox="0 0 17 17" fill="none" xmlns="http://www.w3.org/2000/svg">
<path d="M6.85828 6.81069C6.85828 5.90138 7.59172 5.16793 8.5 5.16793C9.40828 5.16793 10.1417 5.90241 10.1417 6.81069C10.1417 8.15759 8.5 8.54035 8.5 10.0941M16 8.5C16 10.4891 15.2098 12.3968 13.8033 13.8033C12.3968 15.2098 10.4891 16 8.5 16C6.51088 16 4.60322 15.2098 3.1967 13.8033C1.79018 12.3968 1 10.4891 1 8.5C1 6.51088 1.79018 4.60322 3.1967 3.1967C4.60322 1.79018 6.51088 1 8.5 1C10.4891 1 12.3968 1.79018 13.8033 3.1967C15.2098 4.60322 16 6.51088 16 8.5Z" stroke="white" stroke-width="1.3" stroke-miterlimit="10"/>
<path d="M8.49382 12.6449C8.59849 12.6449 8.70214 12.6243 8.79884 12.5842C8.89555 12.5442 8.98342 12.4855 9.05743 12.4115C9.13145 12.3374 9.19016 12.2496 9.23021 12.1529C9.27027 12.0562 9.29089 11.9525 9.29089 11.8479C9.29089 11.7432 9.27027 11.6395 9.23021 11.5428C9.19016 11.4461 9.13145 11.3583 9.05743 11.2842C8.98342 11.2102 8.89555 11.1515 8.79884 11.1115C8.70214 11.0714 8.59849 11.0508 8.49382 11.0508C8.28256 11.0508 8.07995 11.1347 7.93057 11.2841C7.78119 11.4335 7.69727 11.6361 7.69727 11.8473C7.69727 12.0586 7.78119 12.2612 7.93057 12.4106C8.07995 12.56 8.28256 12.6449 8.49382 12.6449Z" fill="white"/>
</svg>
