<svg width="19" height="19" viewBox="0 0 19 19" fill="none" xmlns="http://www.w3.org/2000/svg">
<g clip-path="url(#clip0_698_2357)">
<g clip-path="url(#clip1_698_2357)">
<path fill-rule="evenodd" clip-rule="evenodd" d="M3.54943 3.93C3.67646 3.38125 3.98565 2.89172 4.42658 2.54123C4.86751 2.19073 5.41417 1.99996 5.97744 2H12.9954C14.1454 2.009 15.1454 2.803 15.4054 3.931L16.5204 8.74401V8.74801C16.7103 9.59685 16.7242 10.4756 16.5614 11.33L15.8974 14.78C15.789 15.3484 15.4856 15.8612 15.0397 16.2299C14.5937 16.5986 14.0331 16.8003 13.4544 16.8H5.50144C4.92311 16.7992 4.36306 16.5973 3.91719 16.229C3.47133 15.8607 3.16739 15.3488 3.05743 14.781L2.39343 11.328C2.22558 10.4723 2.23989 9.59082 2.43543 8.74101L3.54943 3.93ZM12.9774 3.24H5.97744C5.39444 3.24 4.88744 3.641 4.75744 4.21L3.64343 9.01801H5.40744C6.33344 9.01801 7.14244 9.61501 7.42044 10.489L7.45044 10.581V10.597C7.60044 10.925 7.92044 11.133 8.27044 11.133H10.7044C11.0594 11.133 11.3704 10.923 11.5064 10.605V10.572L11.5404 10.473C11.685 10.0498 11.958 9.68218 12.3213 9.42138C12.6846 9.16059 13.1202 9.01958 13.5674 9.01801H15.3114L14.1974 4.21C14.1339 3.93413 13.9786 3.68798 13.757 3.51179C13.5354 3.3356 13.2606 3.23978 12.9774 3.24ZM15.4334 10.259H13.5674C13.3936 10.2603 13.2239 10.3117 13.0785 10.4069C12.933 10.5021 12.8181 10.6372 12.7474 10.796V10.811L12.7174 10.903C12.5816 11.3301 12.3133 11.7029 11.9513 11.9672C11.5894 12.2315 11.1526 12.3737 10.7044 12.373H8.27144C7.82433 12.3715 7.38881 12.2307 7.02551 11.97C6.6622 11.7094 6.38917 11.342 6.24444 10.919L6.20944 10.819V10.787C6.14253 10.6299 6.03075 10.4959 5.88809 10.402C5.74543 10.3081 5.57824 10.2583 5.40744 10.259H3.51943C3.52743 10.537 3.55743 10.815 3.61143 11.093L4.27543 14.547C4.33098 14.8317 4.48355 15.0882 4.70712 15.273C4.93069 15.4577 5.21142 15.5591 5.50144 15.56H13.4554C14.0554 15.56 14.5674 15.135 14.6804 14.547L15.3444 11.094V11.092C15.3984 10.818 15.4264 10.539 15.4334 10.259Z" fill="white"/>
</g>
</g>
<defs>
<clipPath id="clip0_698_2357">
<rect width="19" height="19" fill="white" transform="translate(-0.0117188)"/>
</clipPath>
<clipPath id="clip1_698_2357">
<rect width="19" height="19" fill="white" transform="translate(-0.015625)"/>
</clipPath>
</defs>
</svg>
