<svg width="19" height="19" viewBox="0 0 19 19" fill="none" xmlns="http://www.w3.org/2000/svg">
<g clip-path="url(#clip0_1559_809)">
<g clip-path="url(#clip1_1559_809)">
<path d="M10.5389 5.21762C10.0729 5.21762 9.62192 5.03362 9.28892 4.70262L8.19692 3.61462C8.0329 3.45049 7.83798 3.32048 7.62344 3.23208C7.40889 3.14369 7.17896 3.09867 6.94692 3.09962H4.55992C3.58592 3.09962 2.79492 3.88962 2.79492 4.86462V13.3346C2.79492 14.3086 3.58492 15.0996 4.55992 15.0996H14.4429C15.4179 15.0996 16.2079 14.3096 16.2079 13.3346V6.98262C16.2079 6.00862 15.4179 5.21762 14.4429 5.21762H10.5249H10.5389Z" stroke="white" stroke-width="1.3" stroke-miterlimit="10"/>
</g>
</g>
<defs>
<clipPath id="clip0_1559_809">
<rect width="19" height="19" fill="white" transform="translate(-0.00195312)"/>
</clipPath>
<clipPath id="clip1_1559_809">
<rect width="19" height="19" fill="white" transform="translate(-0.00195312)"/>
</clipPath>
</defs>
</svg>
