<svg width="19" height="19" viewBox="0 0 19 19" fill="none" xmlns="http://www.w3.org/2000/svg">
<g clip-path="url(#clip0_698_2349)">
<g clip-path="url(#clip1_698_2349)">
<path d="M8.17704 3.05973L8.58704 3.56373L10.007 2.40872H8.17704V3.05973ZM4.24003 6.25973L3.83003 5.75573L3.82903 5.75673L4.24003 6.25973ZM7.31904 15.7337V16.3837C7.4044 16.3837 7.48892 16.3669 7.56778 16.3343C7.64664 16.3016 7.7183 16.2537 7.77866 16.1934C7.83901 16.133 7.88689 16.0613 7.91956 15.9825C7.95222 15.9036 7.96904 15.8191 7.96904 15.7337H7.31904ZM11.609 15.7337H10.959C10.959 16.0937 11.25 16.3837 11.609 16.3837V15.7337ZM14.688 6.25973L14.278 6.76473H14.279L14.688 6.25973ZM10.751 3.05973L10.34 3.56173L10.341 3.56373L10.751 3.05973ZM8.17004 3.05973L7.76004 2.55372L6.33704 3.70973H8.17104V3.05973H8.17004ZM7.76704 2.55472L3.83003 5.75573L4.65003 6.76473L8.58704 3.56373L7.76704 2.55472ZM3.82903 5.75673C3.44061 6.07316 3.12728 6.47187 2.91164 6.92408C2.69599 7.37629 2.58342 7.87074 2.58203 8.37173H3.88203C3.88203 7.75273 4.16603 7.15973 4.65203 6.76373L3.82903 5.75673ZM2.58203 8.37173V14.0317H3.88203V8.37173H2.58203ZM2.58203 14.0317C2.5823 14.6556 2.83032 15.2539 3.27156 15.6949C3.71281 16.136 4.31115 16.3837 4.93503 16.3837V15.0837C4.35403 15.0837 3.88203 14.6127 3.88203 14.0317H2.58203ZM4.93503 16.3837H7.31904V15.0837H4.93503V16.3837ZM7.96904 15.7337V11.2047H6.66904V15.7347L7.96904 15.7337ZM7.96904 11.2047C7.96904 10.6247 8.44004 10.1517 9.02104 10.1517V8.85173C8.39716 8.852 7.79892 9.10002 7.35786 9.54126C6.9168 9.98251 6.66904 10.5809 6.66904 11.2047H7.96904ZM9.02104 10.1517H9.90704V8.85173H9.02104V10.1517ZM9.90704 10.1517C10.487 10.1517 10.959 10.6237 10.959 11.2047H12.259C12.259 10.5809 12.0113 9.98251 11.5702 9.54126C11.1292 9.10002 10.5309 8.852 9.90704 8.85173V10.1517ZM10.959 11.2047V15.7337L12.259 15.7347V11.2047H10.959ZM11.609 16.3837L13.993 16.3847V15.0847H11.609V16.3837ZM13.993 16.3847C14.6171 16.3847 15.2156 16.1368 15.6569 15.6956C16.0981 15.2543 16.346 14.6558 16.346 14.0317H15.046C15.046 14.6117 14.574 15.0837 13.993 15.0837V16.3847ZM16.346 14.0317V8.37173H15.046V14.0317H16.346ZM16.346 8.37173C16.3461 7.8699 16.2338 7.37443 16.0176 6.92161C15.8013 6.46878 15.4864 6.07009 15.096 5.75473L14.279 6.76473C14.766 7.15973 15.046 7.74973 15.046 8.37173H16.346ZM15.098 5.75573L11.161 2.55472L10.341 3.56373L14.278 6.76473L15.098 5.75573ZM11.163 2.55572C10.6829 2.16381 10.0822 1.94958 9.46239 1.94922C8.8426 1.94885 8.24066 2.16237 7.76004 2.55372L8.57904 3.56373C8.82728 3.36071 9.138 3.24964 9.45868 3.24927C9.77937 3.24891 10.0913 3.35928 10.34 3.56173L11.163 2.55572ZM8.17004 3.70973H8.17704V2.40972H8.17004V3.70973Z" fill="white"/>
</g>
</g>
<defs>
<clipPath id="clip0_698_2349">
<rect width="19" height="19" fill="white" transform="translate(-0.00976562)"/>
</clipPath>
<clipPath id="clip1_698_2349">
<rect width="19" height="19" fill="white" transform="translate(-0.0117188)"/>
</clipPath>
</defs>
</svg>
