<svg width="1308" height="261" viewBox="0 0 1308 261" fill="none" xmlns="http://www.w3.org/2000/svg">
<path d="M1183.77 256.647V73.9675H1245.5V108.339H1247.4C1254.06 83.0063 1269.52 71.5889 1289.15 71.5889C1294.74 71.5889 1300.56 72.4214 1305.68 73.8486V128.438C1299.38 126.298 1288.67 125.227 1281.77 125.227C1262.03 125.227 1247.4 139.261 1247.4 160.312V256.647H1183.77Z" fill="#FFFFFF"/>
<path d="M246.265 255.565H179.447L161.192 209.067H83.3514L66.4744 255.565H0L94.7175 0H148.793L246.265 255.565ZM122.96 74.7407L99.8839 153.959H144.659L122.96 74.7407Z" fill="#FFFFFF"/>
<path d="M265.411 0H326.719V255.565H265.411V0Z" fill="#FFFFFF"/>
<path d="M435.66 0H630.261V56.4861H562.754V255.565H501.445V56.4861H435.66V0Z" fill="#FFFFFF"/>
<path d="M803.818 66.13V255.565H743.543V244.543C734.932 251.776 719.777 258.665 703.245 260.042H698.767C652.614 260.042 632.293 230.766 632.293 185.302V66.13H692.568V159.47C692.568 194.257 702.9 202.179 716.678 201.834C728.732 201.49 736.31 198.046 743.543 190.124V66.13H803.818Z" fill="#FFFFFF"/>
<path d="M912.003 176.002C912.003 190.468 913.725 197.357 921.302 200.112C926.469 201.834 930.946 201.49 941.968 197.701L951.956 250.399C934.046 258.665 905.114 261.765 884.793 253.843C861.027 244.199 852.417 223.189 852.417 187.024V119.861H821.418V66.13H852.417V0H912.003V66.13H950.578V119.861H912.003V176.002Z" fill="#FFFFFF"/>
<path d="M1148.5 96.5167C1112.99 57.2721 1052.39 54.2419 1013.14 89.7487C973.9 125.256 970.87 185.855 1006.38 225.099L983.02 248.456C982.121 249.354 981.617 250.573 981.617 251.843C981.616 254.489 983.761 256.634 986.407 256.635L1077.44 256.635C1101.2 256.634 1124.11 247.807 1141.73 231.867C1180.97 196.36 1184 135.761 1148.5 96.5167Z" fill="#05D686"/>
</svg>
