<svg width="23" height="22" viewBox="0 0 23 22" fill="none" xmlns="http://www.w3.org/2000/svg">
<g clip-path="url(#clip0_698_2940)">
<g clip-path="url(#clip1_698_2940)">
<path fill-rule="evenodd" clip-rule="evenodd" d="M11.3855 4.50778C11.4505 4.44278 11.5276 4.39121 11.6126 4.35603C11.6975 4.32084 11.7885 4.30273 11.8805 4.30273C11.9724 4.30273 12.0634 4.32084 12.1484 4.35603C12.2333 4.39121 12.3105 4.44278 12.3755 4.50778L16.0365 8.16879L15.0465 9.15879L12.5805 6.69279V13.6138H11.1805V6.69279L8.71446 9.15879L7.72447 8.16879L11.3845 4.50878L11.3855 4.50778ZM4.48047 14.9978V12.3258H5.88047V14.9978C5.88047 15.6218 6.38647 16.1278 7.01047 16.1278H16.7505C17.3735 16.1278 17.8805 15.6218 17.8805 14.9978V12.3258H19.2805V14.9978C19.2802 15.6687 19.0135 16.3121 18.5391 16.7865C18.0647 17.2609 17.4214 17.5275 16.7505 17.5278H7.01047C6.33955 17.5275 5.69619 17.2609 5.22178 16.7865C4.74737 16.3121 4.48073 15.6687 4.48047 14.9978Z" fill="white"/>
</g>
</g>
<defs>
<clipPath id="clip0_698_2940">
<rect width="22" height="22" fill="white" transform="translate(0.878906)"/>
</clipPath>
<clipPath id="clip1_698_2940">
<rect width="22" height="22" fill="white" transform="translate(0.878906)"/>
</clipPath>
</defs>
</svg>
