<svg width="31" height="31" viewBox="0 0 31 31" fill="none" xmlns="http://www.w3.org/2000/svg">
<g clip-path="url(#clip0_698_2254)">
<path fill-rule="evenodd" clip-rule="evenodd" d="M15.5501 8.03973C16.2304 8.03973 16.7819 7.48825 16.7819 6.80795C16.7819 6.12766 16.2304 5.57617 15.5501 5.57617C14.8698 5.57617 14.3184 6.12766 14.3184 6.80795C14.3184 7.48825 14.8698 8.03973 15.5501 8.03973Z" stroke="#1D1D1D" stroke-width="2.46356" stroke-linecap="round"/>
<path fill-rule="evenodd" clip-rule="evenodd" d="M15.5501 16.6608C16.2304 16.6608 16.7819 16.1093 16.7819 15.429C16.7819 14.7488 16.2304 14.1973 15.5501 14.1973C14.8698 14.1973 14.3184 14.7488 14.3184 15.429C14.3184 16.1093 14.8698 16.6608 15.5501 16.6608Z" stroke="#1D1D1D" stroke-width="2.46356" stroke-linecap="round"/>
<path fill-rule="evenodd" clip-rule="evenodd" d="M15.5501 25.2839C16.2304 25.2839 16.7819 24.7324 16.7819 24.0521C16.7819 23.3718 16.2304 22.8203 15.5501 22.8203C14.8698 22.8203 14.3184 23.3718 14.3184 24.0521C14.3184 24.7324 14.8698 25.2839 15.5501 25.2839Z" stroke="#1D1D1D" stroke-width="2.46356" stroke-linecap="round"/>
</g>
<defs>
<clipPath id="clip0_698_2254">
<rect width="29.5627" height="29.5627" fill="white" transform="translate(0.777344 0.648438)"/>
</clipPath>
</defs>
</svg>
