<svg width="128" height="128" viewBox="0 0 128 128" fill="none" xmlns="http://www.w3.org/2000/svg">
<path d="M124.633 20.7328L65.5564 0.262653C64.5458 -0.0875509 63.4531 -0.0875509 62.4425 0.262653L3.36612 20.7328C2.38586 21.0725 1.53326 21.7242 0.929121 22.5956C0.32498 23.467 -7.65672e-05 24.5139 1.35282e-08 25.588V76.7634C1.35282e-08 78.1206 0.518675 79.4223 1.44192 80.382C2.36517 81.3417 3.61736 81.8809 4.92303 81.8809C6.2287 81.8809 7.4809 81.3417 8.40415 80.382C9.32739 79.4223 9.84607 78.1206 9.84607 76.7634V32.6886L30.5167 39.8468C25.0248 49.0699 23.2784 60.1815 25.6609 70.742C28.0435 81.3024 34.3603 90.4483 43.2242 96.1716C32.1474 100.688 22.5721 108.857 15.5691 120.026C15.2049 120.588 14.9519 121.221 14.8249 121.886C14.6978 122.551 14.6992 123.236 14.829 123.901C14.9589 124.565 15.2145 125.196 15.581 125.758C15.9475 126.319 16.4177 126.798 16.9642 127.169C17.5106 127.539 18.1225 127.793 18.7642 127.916C19.4059 128.038 20.0646 128.027 20.7021 127.883C21.3395 127.738 21.943 127.463 22.4775 127.074C23.0119 126.685 23.4666 126.19 23.8152 125.617C33.0889 110.827 47.735 102.351 63.9995 102.351C80.2639 102.351 94.91 110.827 104.184 125.617C104.906 126.732 106.021 127.508 107.289 127.775C108.556 128.043 109.874 127.781 110.958 127.046C112.041 126.312 112.803 125.163 113.078 123.85C113.354 122.536 113.121 121.162 112.43 120.026C105.427 108.857 95.8146 100.688 84.7747 96.1716C93.6301 90.4486 99.9409 81.3086 102.323 70.7559C104.705 60.2032 102.964 49.0991 97.4822 39.8787L124.633 30.4753C125.613 30.1358 126.466 29.4842 127.07 28.6127C127.675 27.7413 128 26.6943 128 25.62C128 24.5458 127.675 23.4987 127.07 22.6273C126.466 21.7559 125.613 21.1043 124.633 20.7648V20.7328ZM93.5377 61.4108C93.539 66.2651 92.4331 71.0506 90.3107 75.3746C88.1883 79.6986 85.1099 83.4379 81.3281 86.2857C77.5463 89.1335 73.1688 91.0087 68.5548 91.7573C63.9409 92.506 59.2219 92.1068 54.7851 90.5924C50.3482 89.0781 46.32 86.4919 43.031 83.0459C39.7419 79.5999 37.2856 75.3924 35.8638 70.7686C34.4419 66.1447 34.0949 61.2363 34.8513 56.4461C35.6077 51.6558 37.4459 47.1203 40.215 43.2115L62.4425 50.8878C63.4531 51.238 64.5458 51.238 65.5564 50.8878L87.7839 43.2115C91.5237 48.4828 93.5402 54.861 93.5377 61.4108ZM63.9995 40.6656L20.4921 25.588L63.9995 10.5105L107.507 25.588L63.9995 40.6656Z" fill="white"/>
</svg>
