<svg width="128" height="128" viewBox="0 0 128 128" fill="none" xmlns="http://www.w3.org/2000/svg">
<path d="M115.511 96C118.823 96 122 94.6514 124.341 92.251C126.683 89.8505 127.999 86.5948 127.999 83.2V12.8C127.999 9.40523 126.683 6.1495 124.341 3.74903C122 1.34857 118.823 0 115.511 0H49.7005C51.8859 3.904 53.0722 8.32 53.0722 12.8H115.511V83.2H59.3161V96M84.2917 32V44.8H46.8283V128H34.3405V89.6H21.8527V128H9.36488V76.8H-0.000976562V44.8C-0.000976562 41.4052 1.3147 38.1495 3.65662 35.749C5.99853 33.3486 9.17486 32 12.4868 32H84.2917ZM40.5844 12.8C40.5844 16.1948 39.2687 19.4505 36.9268 21.851C34.5849 24.2514 31.4086 25.6 28.0966 25.6C24.7846 25.6 21.6083 24.2514 19.2664 21.851C16.9245 19.4505 15.6088 16.1948 15.6088 12.8C15.6088 9.40523 16.9245 6.1495 19.2664 3.74903C21.6083 1.34857 24.7846 0 28.0966 0C31.4086 0 34.5849 1.34857 36.9268 3.74903C39.2687 6.1495 40.5844 9.40523 40.5844 12.8Z" fill="white"/>
</svg>
